<svg width="22" height="22" viewBox="0 0 22 22" fill="none" xmlns="http://www.w3.org/2000/svg">
<g clip-path="url(#clip0_4_69)">
<path d="M7.95745 2.34141H13.5745C13.7684 2.34141 13.9255 2.18423 13.9255 1.99035C13.9255 1.79647 13.7684 1.63928 13.5745 1.63928H7.95745C7.76357 1.63928 7.60638 1.79647 7.60638 1.99035C7.60638 2.18423 7.76357 2.34141 7.95745 2.34141Z" fill="#F0754E" stroke="#F0754E" stroke-width="0.448"/>
<path d="M5.40698 12.0182C4.82623 12.0182 4.35379 12.4907 4.35379 13.0714C4.35379 13.6522 4.82623 14.1246 5.40698 14.1246C5.98773 14.1246 6.46017 13.6522 6.46017 13.0714C6.46017 12.4907 5.98773 12.0182 5.40698 12.0182ZM5.40698 13.4225C5.21338 13.4225 5.05592 13.265 5.05592 13.0714C5.05592 12.8778 5.21338 12.7203 5.40698 12.7203C5.60058 12.7203 5.75805 12.8778 5.75805 13.0714C5.75805 13.265 5.60058 13.4225 5.40698 13.4225Z" fill="#F0754E" stroke="#F0754E" stroke-width="0.448"/>
<path d="M16.593 12.0182C16.0123 12.0182 15.5399 12.4907 15.5399 13.0714C15.5399 13.6522 16.0123 14.1246 16.593 14.1246C17.1738 14.1246 17.6462 13.6522 17.6462 13.0714C17.6462 12.4907 17.1738 12.0182 16.593 12.0182ZM16.593 13.4225C16.3994 13.4225 16.242 13.265 16.242 13.0714C16.242 12.8778 16.3994 12.7203 16.593 12.7203C16.7866 12.7203 16.9441 12.8778 16.9441 13.0714C16.9441 13.265 16.7866 13.4225 16.593 13.4225Z" fill="#F0754E" stroke="#F0754E" stroke-width="0.448"/>
<path d="M16.8552 0H5.14477C3.9343 0 2.94955 0.984804 2.94955 2.19523V15.1778C2.94955 15.3717 3.10673 15.5289 3.30061 15.5289H3.41763V17.9043C3.41763 18.6141 3.99506 19.1915 4.70487 19.1915H5.26156L4.45678 19.9963C4.45641 19.9967 3.05234 21.4008 3.05234 21.4008C2.95193 21.5012 2.92188 21.6522 2.97623 21.7833C3.03057 21.9145 3.15859 22 3.30056 22H18.6994C18.8414 22 18.9694 21.9145 19.0237 21.7833C19.0781 21.6521 19.0481 21.5012 18.9477 21.4008L17.5434 19.9965C17.5434 19.9965 16.7384 19.1916 16.7384 19.1916H17.2951C18.0049 19.1916 18.5824 18.6142 18.5824 17.9044V15.5289H18.6994C18.8933 15.5289 19.0505 15.3717 19.0505 15.1778V2.19523C19.0505 0.984804 18.0657 0 16.8552 0ZM5.14477 0.702128H16.8552C17.6785 0.702128 18.3483 1.37196 18.3483 2.19523V3.27851H3.65167V2.19523C3.65167 1.37196 4.3215 0.702128 5.14477 0.702128ZM18.3484 14.8267H3.65167V3.98069H10.6489V10.5387H4.70487C4.51098 10.5387 4.3538 10.6959 4.3538 10.8898C4.3538 11.0837 4.51098 11.2409 4.70487 11.2409H17.2952C17.4891 11.2409 17.6462 11.0837 17.6462 10.8898C17.6462 10.6959 17.4891 10.5387 17.2952 10.5387H11.3511V3.98069H18.3483V14.8267H18.3484ZM9.75377 15.5289H12.2462V17.0852H9.75377V15.5289ZM4.14817 21.2979L4.8503 20.5957H17.1497L17.8519 21.2979H4.14817ZM16.4476 19.8936H5.55243L6.25455 19.1915H15.7455L16.4476 19.8936ZM17.8803 17.9043C17.8803 18.227 17.6178 18.4894 17.2952 18.4894H4.70487C4.38221 18.4894 4.11976 18.227 4.11976 17.9043V15.5289H9.05164V17.4362C9.05164 17.6301 9.20883 17.7873 9.40271 17.7873H12.5973C12.7912 17.7873 12.9484 17.6301 12.9484 17.4362V15.5289H17.8802V17.9043H17.8803Z" fill="#F0754E" stroke="#F0754E" stroke-width="0.448"/>
</g>
<defs>
<clipPath id="clip0_4_69">
<rect width="22" height="22" fill="white"/>
</clipPath>
</defs>
</svg>
